<?xml version="1.0" encoding="UTF-8"?>
<!DOCTYPE svg PUBLIC "-//W3C//DTD SVG 1.1//EN" "http://www.w3.org/Graphics/SVG/1.1/DTD/svg11.dtd">
<!-- Creator: CorelDRAW 2020 -->
<svg xmlns="http://www.w3.org/2000/svg" xml:space="preserve" width="84.6666mm" height="24.7248mm" version="1.1" style="shape-rendering:geometricPrecision; text-rendering:geometricPrecision; image-rendering:optimizeQuality; fill-rule:evenodd; clip-rule:evenodd"
viewBox="0 0 8459.07 2470.26"
 xmlns:xlink="http://www.w3.org/1999/xlink"
 xmlns:xodm="http://www.corel.com/coreldraw/odm/2003">
 <defs>
  <style type="text/css">
   <![CDATA[
    .fil0 {fill:black}
    .fil1 {fill:white}
    .fil2 {fill:black;fill-rule:nonzero}
   ]]>
  </style>
 </defs>
 <g id="Слой_x0020_1">
  <metadata id="CorelCorpID_0Corel-Layer"/>
  <polygon class="fil0" points="-0,2470.26 2470.25,2470.26 2470.25,0 -0,0 "/>
  <polygon class="fil1" points="927.94,1652.73 313.54,1652.73 927.94,817.53 1235.11,1235.12 "/>
  <polygon class="fil1" points="1542.32,1652.73 2156.71,1652.73 1542.32,817.53 1235.12,1235.12 "/>
  <path class="fil2" d="M4019.24 780.43l0 909.41 -242.42 0 0 -489.78 -231.53 365.05 -24.52 0 -230.15 -363.76 0 488.49 -243.79 0 0 -909.41 243.79 0 242.42 388.45 243.78 -388.45 242.42 0zm732.7 909.41l-40.86 -131.21 -317.33 0 -40.84 131.21 -264.22 0 314.61 -909.41 296.9 0 314.59 909.41 -262.84 0zm-295.53 -331.28l192.04 0 -96.7 -309.2 -95.33 309.2zm1417.75 331.28l-272.38 0 -149.82 -241.64 -149.82 241.64 -273.74 0 287.37 -463.8 -276.47 -445.61 273.74 0 138.92 224.76 138.92 -224.76 273.73 0 -276.46 446.91 286 462.5zm685.04 -470.3c79.9,45.03 119.85,113.02 119.85,203.97 0,80.55 -29.05,145.07 -87.17,193.58 -58.1,48.51 -135.73,72.75 -232.87,72.75l-401.77 0 0 -909.41 375.89 0c95.32,0 171.6,23.17 228.79,69.51 57.2,46.34 85.79,109.34 85.79,189.03 0,76.21 -29.5,136.41 -88.52,180.58zm-232.88 -231.24l-125.31 0 0 142.89 125.31 0c21.78,0 40.17,-6.27 55.15,-18.83 14.99,-12.55 22.47,-30.09 22.47,-52.62 0,-21.65 -7.25,-38.97 -21.79,-51.95 -14.53,-13 -33.14,-19.48 -55.83,-19.48zm25.87 493.67c24.52,0 44.5,-7.13 59.93,-21.43 15.45,-14.3 23.16,-32.7 23.16,-55.21 0,-23.39 -7.71,-42 -23.16,-55.86 -15.43,-13.87 -35.41,-20.79 -59.93,-20.79l-151.17 0 0 153.29 151.17 0zm1242.76 90.3c-96.7,91.37 -214.96,137.06 -354.79,137.06 -139.82,0 -258.08,-45.69 -354.78,-137.06 -96.68,-91.38 -145.03,-203.76 -145.03,-337.14 0,-133.38 48.35,-245.75 145.03,-337.13 96.7,-91.37 214.96,-137.07 354.78,-137.07 139.83,0 258.09,45.7 354.79,137.07 96.68,91.38 145.03,203.75 145.03,337.13 0,133.38 -48.35,245.76 -145.03,337.14zm-538.65 -159.8c49.04,46.34 110.32,69.5 183.85,69.5 73.55,0 134.84,-23.16 183.86,-69.5 49.04,-46.34 73.55,-105.45 73.55,-177.34 0,-71.88 -24.52,-130.99 -73.55,-177.33 -49.03,-46.34 -110.31,-69.5 -183.86,-69.5 -73.53,0 -134.82,23.16 -183.85,69.5 -49.04,46.34 -73.55,105.46 -73.55,177.33 0,71.9 24.52,131 73.55,177.34zm1402.77 -632.04l0 224.76 -235.61 0 0 684.66 -243.78 0 0 -684.66 -235.61 0 0 -224.76 715 0z"/>
 </g>
</svg>
